<?xml version="1.0" encoding="UTF-8" standalone="no" ?>
<!DOCTYPE svg PUBLIC "-//W3C//DTD SVG 1.1//EN" "http://www.w3.org/Graphics/SVG/1.1/DTD/svg11.dtd">
<svg xmlns="http://www.w3.org/2000/svg" xmlns:xlink="http://www.w3.org/1999/xlink" version="1.1" width="457" height="457" viewBox="0 0 457 457" xml:space="preserve">
<desc>Created with Fabric.js 3.6.3</desc>
<defs>
</defs>
<g transform="matrix(1 0 0 1 228.46 229.4)"  >
<g style=""   >
		<g transform="matrix(1 0 0 1 0 0)"  >
<path style="stroke: none; stroke-width: 1; stroke-dasharray: none; stroke-linecap: butt; stroke-dashoffset: 0; stroke-linejoin: miter; stroke-miterlimit: 4; fill: rgb(0,0,0); fill-rule: nonzero; opacity: 1;"  transform=" translate(-228.4, -228.4)" d="M 448.947 218.474 c -0.922 -1.168 -23.055 -28.933 -61 -56.81 c -50.707 -37.253 -105.879 -56.944 -159.551 -56.944 c -53.673 0 -108.845 19.691 -159.551 56.944 c -37.944 27.876 -60.077 55.642 -61 56.81 L 0 228.396 l 7.845 9.923 c 0.923 1.168 23.056 28.934 61 56.811 c 50.707 37.254 105.878 56.943 159.551 56.943 c 53.672 0 108.844 -19.689 159.551 -56.943 c 37.945 -27.877 60.078 -55.643 61 -56.811 l 7.846 -9.923 L 448.947 218.474 z M 228.396 312.096 c -46.152 0 -83.699 -37.548 -83.699 -83.699 c 0 -46.152 37.547 -83.699 83.699 -83.699 s 83.7 37.547 83.7 83.699 C 312.096 274.548 274.548 312.096 228.396 312.096 z M 41.685 228.396 c 9.197 -9.872 25.32 -25.764 46.833 -41.478 c 13.911 -10.16 31.442 -21.181 51.772 -30.305 c -15.989 19.589 -25.593 44.584 -25.593 71.782 s 9.604 52.193 25.593 71.782 c -20.329 -9.124 -37.861 -20.146 -51.771 -30.306 C 67.002 254.159 50.878 238.265 41.685 228.396 z M 368.273 269.874 c -13.912 10.16 -31.443 21.182 -51.771 30.306 c 15.988 -19.589 25.594 -44.584 25.594 -71.782 s -9.605 -52.193 -25.594 -71.782 c 20.33 9.124 37.861 20.146 51.771 30.305 c 21.516 15.715 37.639 31.609 46.832 41.477 C 405.91 238.268 389.785 254.161 368.273 269.874 z" stroke-linecap="round" />
</g>
		<g transform="matrix(1 0 0 1 5.42 -5.52)"  >
<path style="stroke: none; stroke-width: 1; stroke-dasharray: none; stroke-linecap: butt; stroke-dashoffset: 0; stroke-linejoin: miter; stroke-miterlimit: 4; fill: rgb(0,0,0); fill-rule: nonzero; opacity: 1;"  transform=" translate(-233.81, -222.88)" d="M 223.646 168.834 c -27.513 4 -50.791 31.432 -41.752 59.562 c 8.23 -20.318 25.457 -33.991 45.795 -32.917 c 16.336 0.863 33.983 18.237 33.59 32.228 c 1.488 22.407 -12.725 39.047 -32.884 47.191 c 46.671 15.21 73.197 -44.368 51.818 -79.352 C 268.232 175.942 245.969 166.23 223.646 168.834 z" stroke-linecap="round" />
</g>
</g>
</g>
<g transform="matrix(1 0 0 1 226.57 225.02)"  >
<path style="stroke: rgb(0,0,0); stroke-width: 31; stroke-dasharray: none; stroke-linecap: round; stroke-dashoffset: 0; stroke-linejoin: round; stroke-miterlimit: 10; fill: none; fill-rule: nonzero; opacity: 1;"  transform=" translate(-316.5, -247)" d="M 507.031 40.969 Q 507 41 506 41 Q 505 41 502 43.5 Q 499 46 496.5 48.5 Q 494 51 487 57 Q 480 63 471.5 71 Q 463 79 456 86.5 Q 449 94 441 102 Q 433 110 427.5 116.5 Q 422 123 415.5 129 Q 409 135 404 139.5 Q 399 144 395 148.5 Q 391 153 386 158 Q 381 163 378 166 Q 375 169 372.5 172 Q 370 175 366.5 179 Q 363 183 361 186 Q 359 189 356 193 Q 353 197 345 208 Q 337 219 331 225 Q 325 231 319.5 238 Q 314 245 307.5 252.5 Q 301 260 296 266 Q 291 272 287.5 277.5 Q 284 283 280.5 287 Q 277 291 272.5 296 Q 268 301 262 308 Q 256 315 248 323 Q 240 331 232.5 339 Q 225 347 221.5 351.5 Q 218 356 214.5 359 Q 211 362 202 372.5 Q 193 383 189 387 Q 185 391 180.5 395 Q 176 399 170.5 405 Q 165 411 161 416 Q 157 421 152.5 425.5 Q 148 430 143.5 433.5 Q 139 437 136 441.5 Q 133 446 131 448.5 Q 129 451 127.5 452 L 125.969 453.031" stroke-linecap="round" />
</g>
</svg>