<?xml version="1.0" encoding="UTF-8" standalone="no" ?>
<!DOCTYPE svg PUBLIC "-//W3C//DTD SVG 1.1//EN" "http://www.w3.org/Graphics/SVG/1.1/DTD/svg11.dtd">
<svg xmlns="http://www.w3.org/2000/svg" xmlns:xlink="http://www.w3.org/1999/xlink" version="1.1" width="480" height="480" viewBox="0 0 480 480" xml:space="preserve">
<desc>Created with Fabric.js 3.6.3</desc>
<defs>
</defs>
<g transform="matrix(1 0 0 1 71.33 208)"  >
<path style="stroke: rgb(0,0,0); stroke-opacity: 0; stroke-width: 1; stroke-dasharray: none; stroke-linecap: round; stroke-dashoffset: 0; stroke-linejoin: round; stroke-miterlimit: 10; fill: none; fill-rule: nonzero; opacity: 1;"  transform=" translate(-71.33, -208)" d="M 87.33431298828125 149 Q 87.33331298828125 149 86.83331298828125 149 Q 86.33331298828125 149 85.83331298828125 149 Q 85.33331298828125 149 84.83331298828125 149 Q 84.33331298828125 149 82.83331298828125 149 Q 81.33331298828125 149 78.33331298828125 151 Q 75.33331298828125 153 73.83331298828125 155 Q 72.33331298828125 157 69.83331298828125 159 Q 67.33331298828125 161 65.83331298828125 164 Q 64.33331298828125 167 62.83331298828125 170.5 Q 61.33331298828125 174 60.33331298828125 175.5 Q 59.33331298828125 177 58.33331298828125 180 Q 57.33331298828125 183 56.83331298828125 187 Q 56.33331298828125 191 55.83331298828125 193 Q 55.33331298828125 195 55.33331298828125 198 Q 55.33331298828125 201 55.33331298828125 203 Q 55.33331298828125 205 55.33331298828125 209.5 Q 55.33331298828125 214 55.33331298828125 217.5 Q 55.33331298828125 221 56.33331298828125 226 Q 57.33331298828125 231 58.33331298828125 234.5 Q 59.33331298828125 238 61.33331298828125 246 Q 63.33331298828125 254 64.33331298828125 257.5 Q 65.33331298828125 261 65.83331298828125 263.5 Q 66.33331298828125 266 66.83331298828125 266.5 L 67.33431298828125 267.001" stroke-linecap="round" />
</g>
<g transform="matrix(1 0 0 1 46.72 146.88)"  >
<path style="stroke: rgb(0,0,0); stroke-opacity: 0; stroke-width: 6; stroke-dasharray: none; stroke-linecap: round; stroke-dashoffset: 0; stroke-linejoin: round; stroke-miterlimit: 10; fill: none; fill-rule: nonzero; opacity: 1;"  transform=" translate(-46.72, -146.89)" d="M 25.33331298828125 88.994 Q 25.33331298828125 89 25.83331298828125 89 Q 26.33331298828125 89 26.33331298828125 91 Q 26.33331298828125 93 26.83331298828125 94 Q 27.33331298828125 95 28.33331298828125 99.5 Q 29.33331298828125 104 29.33331298828125 107 Q 29.33331298828125 110 30.33331298828125 115 Q 31.33331298828125 120 31.33331298828125 123.5 Q 31.33331298828125 127 31.83331298828125 130.5 Q 32.33331298828125 134 32.83331298828125 136.5 Q 33.33331298828125 139 33.83331298828125 142 Q 34.33331298828125 145 36.83331298828125 148 Q 39.33331298828125 151 39.33331298828125 151.5 Q 39.33331298828125 152 40.33331298828125 152.5 Q 41.33331298828125 153 43.33331298828125 153 Q 45.33331298828125 153 46.83331298828125 153 Q 48.33331298828125 153 51.33331298828125 151 Q 54.33331298828125 149 56.83331298828125 147 Q 59.33331298828125 145 61.33331298828125 143 Q 63.33331298828125 141 65.33331298828125 138 Q 67.33331298828125 135 67.83331298828125 134 Q 68.33331298828125 133 66.33331298828125 140 Q 64.33331298828125 147 62.83331298828125 153 Q 61.33331298828125 159 58.83331298828125 164.5 Q 56.33331298828125 170 49.83331298828125 184.5 Q 43.33331298828125 199 42.33331298828125 201.5 Q 41.33331298828125 204 41.33331298828125 204.5 Q 41.33331298828125 205 41.83331298828125 203 Q 42.33331298828125 201 44.83331298828125 194 Q 47.33331298828125 187 51.33331298828125 169.5 Q 55.33331298828125 152 57.33331298828125 136.5 Q 59.33331298828125 121 61.33331298828125 109 Q 63.33331298828125 97 64.83331298828125 94 Q 66.33331298828125 91 66.33331298828125 90.5 Q 66.33331298828125 90 66.33331298828125 90.5 Q 66.33331298828125 91 64.83331298828125 91 Q 63.33331298828125 91 62.33331298828125 106 Q 61.33331298828125 121 58.83331298828125 134 Q 56.33331298828125 147 53.83331298828125 156 Q 51.33331298828125 165 50.83331298828125 171 L 50.32731298828125 177.006" stroke-linecap="round" />
</g>
<g transform="matrix(1 0 0 1 236.33 216.49)"  >
<path style="stroke: rgb(0,0,0); stroke-opacity: 0; stroke-width: 6; stroke-dasharray: none; stroke-linecap: round; stroke-dashoffset: 0; stroke-linejoin: round; stroke-miterlimit: 10; fill: none; fill-rule: nonzero; opacity: 1;"  transform=" translate(-236.33, -216.5)" d="M 193.32731298828125 190.994 Q 193.33331298828125 191 196.83331298828125 195.5 Q 200.33331298828125 200 205.33331298828125 203.5 Q 210.33331298828125 207 215.83331298828125 210 Q 221.33331298828125 213 227.33331298828125 217 Q 233.33331298828125 221 238.33331298828125 222.5 Q 243.33331298828125 224 248.83331298828125 226 Q 254.33331298828125 228 261.83331298828125 228.5 Q 269.33331298828125 229 273.33331298828125 229 Q 277.33331298828125 229 278.33331298828125 229 Q 279.33331298828125 229 279.33331298828125 230.5 Q 279.33331298828125 232 278.33331298828125 232 Q 277.33331298828125 232 277.33331298828125 232.5 Q 277.33331298828125 233 274.83331298828125 236 Q 272.33331298828125 239 270.83331298828125 240.5 Q 269.33331298828125 242 268.83331298828125 242 L 268.3273129882813 242" stroke-linecap="round" />
</g>
<g transform="matrix(1 0 0 1 40.33 312)"  >
<g style=""   >
		<g transform="matrix(1 0 0 1 0 0)"  >
<circle style="stroke: none; stroke-width: 1; stroke-dasharray: none; stroke-linecap: butt; stroke-dashoffset: 0; stroke-linejoin: miter; stroke-miterlimit: 4; fill: rgb(255,255,255); fill-opacity: 0.93; fill-rule: nonzero; opacity: 1;"  cx="0" cy="0" r="2" />
</g>
</g>
</g>
<g transform="matrix(6.3 0 0 4.68 320.18 239.99)"  >
<polygon style="stroke: rgb(255,255,255); stroke-width: 8; stroke-dasharray: none; stroke-linecap: butt; stroke-dashoffset: 0; stroke-linejoin: miter; stroke-miterlimit: 4; fill: rgb(255,255,255); fill-rule: nonzero; opacity: 1;" vector-effect="non-scaling-stroke"  points="-50,-50 -50,50 50,50 50,-50 " />
</g>
<g transform="matrix(1.01 0 0 1 241.1 241.06)" id="Capa_1"  >
<path style="stroke: none; stroke-width: 1; stroke-dasharray: none; stroke-linecap: butt; stroke-dashoffset: 0; stroke-linejoin: miter; stroke-miterlimit: 4; fill: rgb(0,0,0); fill-rule: nonzero; opacity: 1;"  transform=" translate(-189.56, -189.56)" d="M 374.742 329.056 c -1.924 -6.558 -7.188 -11.373 -15.646 -14.315 c -4.768 -1.656 -10.161 -2.695 -15.886 -3.799 c -4.628 -0.893 -9.412 -1.813 -13.292 -3.007 c -0.478 -0.146 -0.917 -0.293 -1.319 -0.432 c 0.999 -1.021 2.034 -2.048 2.904 -2.91 c 4.104 -4.061 8.351 -8.261 11.271 -13.063 c 5.422 -8.918 4.794 -18.369 -1.678 -25.282 c 0 0 -6.153 -6.954 -17.972 -6.954 c -3.317 0 -6.765 0.591 -10.24 1.755 c 0.101 -6.3 0.047 -12.383 -0.16 -18.081 c -1.074 -29.662 -5.979 -48.147 -15.434 -58.178 c 0.023 -22.692 -9.021 -56.099 -24.194 -89.363 C 250.033 44.866 219.626 8.17 200.796 8.17 c -1.771 0 -3.423 0.345 -4.919 1.026 c -0.187 0.084 -0.365 0.177 -0.572 0.286 l -9.3 4.248 c -6.788 -2.36 -20.356 -6.799 -34.954 -10.01 C 139.834 1.252 130.126 0 122.197 0 c -13.492 0 -22.308 3.459 -26.953 10.575 c -2.41 3.692 -4.77 9.95 -2.322 18.786 c 0.493 1.779 1.177 3.634 2.034 5.511 c 9.438 20.69 52.658 54.961 100.531 79.715 c 1.051 0.544 2.262 0.696 3.413 0.433 c 0.964 -0.222 1.953 -0.333 2.944 -0.333 c 5.175 0 9.905 3.039 12.051 7.742 c 1.47 3.221 1.597 6.819 0.357 10.136 c -1.238 3.315 -3.693 5.95 -6.914 7.419 c -1.742 0.795 -3.59 1.197 -5.491 1.198 c -5.179 0 -9.913 -3.044 -12.062 -7.755 c -0.462 -1.015 -0.793 -2.079 -0.984 -3.163 c -0.27 -1.536 -1.24 -2.857 -2.624 -3.574 c -38.121 -19.751 -73.136 -44.636 -93.667 -66.568 c -1.468 -1.567 -3.772 -2.023 -5.726 -1.132 L 6.557 95.586 c -1.999 0.912 -3.168 3.021 -2.882 5.2 c 1.469 11.192 8.085 51.709 31.55 103.146 c 23.463 51.438 49.724 82.994 57.214 91.44 c 1.458 1.646 3.818 2.146 5.816 1.231 l 167.184 -76.265 c 0.206 1.544 0.419 3.117 0.644 4.757 c 1.438 10.559 3.07 22.524 3.11 32.352 c 0.028 6.927 -0.744 10.773 -1.398 12.783 l 0 0 c -1.97 -0.214 -4.408 -0.619 -6.771 -1.016 c -4.793 -0.799 -9.747 -1.626 -14.512 -1.626 c -11.599 0 -17.068 5.341 -19.617 9.82 c -5.986 10.531 -0.033 23.457 5.82 33.543 c -3.291 0.916 -7.79 1.701 -10.776 2.221 c -4.479 0.781 -9.108 1.589 -13.123 2.859 c -7.511 2.379 -12.396 6.464 -14.525 12.144 c -1.672 4.458 -2.248 11.52 4.49 19.839 c 8.809 10.871 21.499 19.078 37.722 24.396 c 13.405 4.396 29.27 6.719 45.876 6.719 c 16 0 32.021 -2.082 46.328 -6.021 c 10.648 -2.933 25.358 -8.347 34.965 -17.488 C 367.706 351.784 378.417 341.591 374.742 329.056 z M 251.675 317.151 c 1.16 -2.648 0.595 -5.929 -1.736 -10.03 c -5.625 -9.902 -7.554 -16.623 -5.734 -19.977 c 0.393 -0.721 1.583 -2.916 7.17 -2.916 c 3.206 0 7.051 0.673 10.775 1.323 c 3.615 0.63 7.028 1.229 9.802 1.229 c 1.474 0 2.625 -0.168 3.521 -0.517 c 0.584 -0.226 1.116 -0.582 1.56 -1.041 c 9.311 -9.688 7.153 -36.916 4.148 -63.981 c -1.055 -9.491 -2 -17.063 -0.998 -18.579 c 0.234 -0.263 0.46 -0.376 0.701 -0.349 c 8.646 2.771 14.124 18.758 15.837 46.226 c 0.725 11.605 0.638 22.874 0.438 30.28 c -0.046 1.746 0.86 3.366 2.34 4.175 c 1.479 0.809 3.268 0.661 4.606 -0.376 c 3.513 -2.721 8.796 -5.963 14.036 -5.965 c 2.734 0 5.131 0.838 7.325 2.561 l 0.002 0.002 c 3.938 4.407 0.54 9.42 -8.058 18.331 c -5.881 6.097 -8.544 9.329 -8.771 12.373 c -0.052 0.708 0.053 1.421 0.311 2.08 c 2.803 7.205 13.857 9.437 24.549 11.592 c 8.934 1.804 17.371 3.505 18.674 8.155 c 0.836 2.988 -1.311 6.988 -6.562 12.223 c -10.729 10.695 -36.628 18.166 -62.979 18.166 c -28.88 0 -52.202 -8.737 -63.986 -23.975 c -1.984 -2.566 -2.688 -4.715 -2.095 -6.381 c 1.266 -3.537 8.118 -4.789 15.375 -6.113 C 242.12 323.806 249.503 322.106 251.675 317.151 z M 231.327 114.478 c -9.344 -20.483 -16.378 -41.472 -19.809 -59.101 c -1.194 -6.131 -1.938 -11.761 -2.206 -16.734 h 0.001 c 3.582 3.467 7.35 7.719 11.192 12.638 c 11.062 14.146 22.303 33.217 31.646 53.697 s 16.378 41.468 19.809 59.1 c 1.194 6.127 1.938 11.757 2.206 16.734 c -3.576 -3.459 -7.343 -7.711 -11.192 -12.638 C 251.909 154.029 240.669 134.96 231.327 114.478 z M 107.806 18.772 c 0.743 -1.138 3.611 -3.783 14.187 -3.783 c 6.916 0 15.562 1.127 25.698 3.35 c 5.588 1.225 11.647 2.791 18.007 4.653 l -46.042 21.002 c -5.281 -5.665 -8.99 -10.797 -11.022 -15.252 c -0.538 -1.18 -0.96 -2.318 -1.256 -3.387 C 106.604 22.555 106.742 20.401 107.806 18.772 z" stroke-linecap="round" />
</g>
</svg>